<?xml version="1.0" encoding="UTF-8" standalone="no"?>
<!DOCTYPE svg PUBLIC "-//W3C//DTD SVG 1.1//EN"
 "http://www.w3.org/Graphics/SVG/1.1/DTD/svg11.dtd">
<!-- Generated by graphviz version 8.1.0 (20230707.0739)
 -->
<!-- Title: G Pages: 1 -->
<svg width="454pt" height="214pt"
 viewBox="0.00 0.00 454.20 213.70" xmlns="http://www.w3.org/2000/svg" xmlns:xlink="http://www.w3.org/1999/xlink">
<g id="graph0" class="graph" transform="scale(1 1) rotate(0) translate(21.6 192.1)">
<title>G</title>
<polygon fill="#111111" stroke="none" points="-21.6,21.6 -21.6,-192.1 432.6,-192.1 432.6,21.6 -21.6,21.6"/>
<!-- airportSearch.js -->
<g id="node1" class="node">
<title>airportSearch.js</title>
<path fill="none" stroke="#c6c5fe" d="M294.21,-106.5C294.21,-106.5 195.54,-106.5 195.54,-106.5 191.46,-106.5 187.38,-102.42 187.38,-98.33 187.38,-98.33 187.38,-90.17 187.38,-90.17 187.38,-86.08 191.46,-82 195.54,-82 195.54,-82 294.21,-82 294.21,-82 298.29,-82 302.38,-86.08 302.38,-90.17 302.38,-90.17 302.38,-98.33 302.38,-98.33 302.38,-102.42 298.29,-106.5 294.21,-106.5"/>
<text text-anchor="middle" x="244.88" y="-89.2" font-family="Arial" font-size="14.00" fill="#c6c5fe">airportSearch.js</text>
</g>
<!-- main.js -->
<g id="node2" class="node">
<title>main.js</title>
<path fill="none" stroke="#cfffac" d="M402.83,-106.5C402.83,-106.5 358.92,-106.5 358.92,-106.5 354.83,-106.5 350.75,-102.42 350.75,-98.33 350.75,-98.33 350.75,-90.17 350.75,-90.17 350.75,-86.08 354.83,-82 358.92,-82 358.92,-82 402.83,-82 402.83,-82 406.92,-82 411,-86.08 411,-90.17 411,-90.17 411,-98.33 411,-98.33 411,-102.42 406.92,-106.5 402.83,-106.5"/>
<text text-anchor="middle" x="380.88" y="-89.2" font-family="Arial" font-size="14.00" fill="#cfffac">main.js</text>
</g>
<!-- airportSearch.js&#45;&gt;main.js -->
<g id="edge1" class="edge">
<title>airportSearch.js&#45;&gt;main.js</title>
<path fill="none" stroke="#757575" d="M302.7,-94.25C315.14,-94.25 328.05,-94.25 339.67,-94.25"/>
<polygon fill="#757575" stroke="#757575" points="339.36,-97.75 349.36,-94.25 339.36,-90.75 339.36,-97.75"/>
</g>
<!-- collapsible.js -->
<g id="node3" class="node">
<title>collapsible.js</title>
<path fill="none" stroke="#cfffac" d="M110.21,-170.5C110.21,-170.5 28.79,-170.5 28.79,-170.5 24.71,-170.5 20.62,-166.42 20.62,-162.33 20.62,-162.33 20.62,-154.17 20.62,-154.17 20.62,-150.08 24.71,-146 28.79,-146 28.79,-146 110.21,-146 110.21,-146 114.29,-146 118.38,-150.08 118.38,-154.17 118.38,-154.17 118.38,-162.33 118.38,-162.33 118.38,-166.42 114.29,-170.5 110.21,-170.5"/>
<text text-anchor="middle" x="69.5" y="-153.2" font-family="Arial" font-size="14.00" fill="#cfffac">collapsible.js</text>
</g>
<!-- dropdown.js -->
<g id="node4" class="node">
<title>dropdown.js</title>
<path fill="none" stroke="#c6c5fe" d="M107.96,-127.5C107.96,-127.5 31.04,-127.5 31.04,-127.5 26.96,-127.5 22.88,-123.42 22.88,-119.33 22.88,-119.33 22.88,-111.17 22.88,-111.17 22.88,-107.08 26.96,-103 31.04,-103 31.04,-103 107.96,-103 107.96,-103 112.04,-103 116.12,-107.08 116.12,-111.17 116.12,-111.17 116.12,-119.33 116.12,-119.33 116.12,-123.42 112.04,-127.5 107.96,-127.5"/>
<text text-anchor="middle" x="69.5" y="-110.2" font-family="Arial" font-size="14.00" fill="#c6c5fe">dropdown.js</text>
</g>
<!-- dropdown.js&#45;&gt;airportSearch.js -->
<g id="edge2" class="edge">
<title>dropdown.js&#45;&gt;airportSearch.js</title>
<path fill="none" stroke="#757575" d="M116.51,-109.68C134.87,-107.45 156.39,-104.85 176.46,-102.42"/>
<polygon fill="#757575" stroke="#757575" points="176.61,-105.8 186.11,-101.13 175.76,-98.85 176.61,-105.8"/>
</g>
<!-- dropdown.js&#45;&gt;main.js -->
<g id="edge3" class="edge">
<title>dropdown.js&#45;&gt;main.js</title>
<path fill="none" stroke="#757575" d="M116.3,-119.47C165.63,-123.03 246.26,-126.02 314.75,-115.25 323.17,-113.93 331.98,-111.7 340.3,-109.17"/>
<polygon fill="#757575" stroke="#757575" points="341.09,-112.27 349.52,-105.86 338.93,-105.61 341.09,-112.27"/>
</g>
<!-- locationPair.js -->
<g id="node5" class="node">
<title>locationPair.js</title>
<path fill="none" stroke="#c6c5fe" d="M113.21,-67.5C113.21,-67.5 25.79,-67.5 25.79,-67.5 21.71,-67.5 17.62,-63.42 17.62,-59.33 17.62,-59.33 17.62,-51.17 17.62,-51.17 17.62,-47.08 21.71,-43 25.79,-43 25.79,-43 113.21,-43 113.21,-43 117.29,-43 121.38,-47.08 121.38,-51.17 121.38,-51.17 121.38,-59.33 121.38,-59.33 121.38,-63.42 117.29,-67.5 113.21,-67.5"/>
<text text-anchor="middle" x="69.5" y="-50.2" font-family="Arial" font-size="14.00" fill="#c6c5fe">locationPair.js</text>
</g>
<!-- locationPair.js&#45;&gt;airportSearch.js -->
<g id="edge4" class="edge">
<title>locationPair.js&#45;&gt;airportSearch.js</title>
<path fill="none" stroke="#757575" d="M121.58,-66.74C138.86,-70.63 158.43,-75.03 176.77,-79.16"/>
<polygon fill="#757575" stroke="#757575" points="175.87,-82.77 186.4,-81.55 177.41,-75.94 175.87,-82.77"/>
</g>
<!-- locationPair.js&#45;&gt;main.js -->
<g id="edge6" class="edge">
<title>locationPair.js&#45;&gt;main.js</title>
<path fill="none" stroke="#757575" d="M121.49,-55.49C171.23,-56.54 248.81,-60.38 314.75,-73.25 323.11,-74.88 331.9,-77.25 340.22,-79.81"/>
<polygon fill="#757575" stroke="#757575" points="338.85,-83.37 349.44,-83.11 341,-76.71 338.85,-83.37"/>
</g>
<!-- locationPairClass.js -->
<g id="node6" class="node">
<title>locationPairClass.js</title>
<path fill="none" stroke="#cfffac" d="M306.58,-25.5C306.58,-25.5 183.17,-25.5 183.17,-25.5 179.08,-25.5 175,-21.42 175,-17.33 175,-17.33 175,-9.17 175,-9.17 175,-5.08 179.08,-1 183.17,-1 183.17,-1 306.58,-1 306.58,-1 310.67,-1 314.75,-5.08 314.75,-9.17 314.75,-9.17 314.75,-17.33 314.75,-17.33 314.75,-21.42 310.67,-25.5 306.58,-25.5"/>
<text text-anchor="middle" x="244.88" y="-8.2" font-family="Arial" font-size="14.00" fill="#cfffac">locationPairClass.js</text>
</g>
<!-- locationPair.js&#45;&gt;locationPairClass.js -->
<g id="edge5" class="edge">
<title>locationPair.js&#45;&gt;locationPairClass.js</title>
<path fill="none" stroke="#757575" d="M121.58,-42.88C140.12,-38.38 161.29,-33.26 180.75,-28.54"/>
<polygon fill="#757575" stroke="#757575" points="181.46,-31.73 190.36,-25.97 179.81,-24.93 181.46,-31.73"/>
</g>
<!-- suggestion_pairs.js -->
<g id="node7" class="node">
<title>suggestion_pairs.js</title>
<path fill="none" stroke="#c6c5fe" d="M130.83,-24.5C130.83,-24.5 8.17,-24.5 8.17,-24.5 4.08,-24.5 0,-20.42 0,-16.33 0,-16.33 0,-8.17 0,-8.17 0,-4.08 4.08,0 8.17,0 8.17,0 130.83,0 130.83,0 134.92,0 139,-4.08 139,-8.17 139,-8.17 139,-16.33 139,-16.33 139,-20.42 134.92,-24.5 130.83,-24.5"/>
<text text-anchor="middle" x="69.5" y="-7.2" font-family="Arial" font-size="14.00" fill="#c6c5fe">suggestion_pairs.js</text>
</g>
<!-- suggestion_pairs.js&#45;&gt;locationPairClass.js -->
<g id="edge7" class="edge">
<title>suggestion_pairs.js&#45;&gt;locationPairClass.js</title>
<path fill="none" stroke="#757575" d="M139.02,-12.65C147.18,-12.69 155.57,-12.74 163.87,-12.79"/>
<polygon fill="#757575" stroke="#757575" points="163.69,-16.29 173.71,-12.85 163.73,-9.29 163.69,-16.29"/>
</g>
</g>
</svg>
